PathFileType   4   (X/Y/Z)																																																																																																																							
DataRate  CameraRate  NumFrames  NumMarkers  Units  OrigDataRate  OrigDataStartFrame  OrigNumFrames  																																																																																																																							
  120.0      120.0        5         39         mm      120.0          82        109																																																																																																																							
Frame#      Time	midhip		hip_r		hip_l		knee_r		knee_l		ankle_r		ankle_l		midasis		asis_r		asis_l		psis_r		psis_l		epicondLat_r		epicondLat_l		epicondMed_r		epicondMed_l		malleolusLat_r		malleolusLat_l		malleolusMedv_r		malleolusMedv_l		heel_r		heel_l		sternalnotch		xyphoidprocess		neck		subclavicle_r		subclavicle_l		toe_r		toe_l		thighwand_r		thighwand_l		upperleg1_r		upperleg1_l		upperleg2_r		upperleg2_l		shankwand_r		shankwand_l		lowerleg1_r		lowerleg1_l		
              X1          Y1          Z1          X2          Y2          Z2          X3          Y3          Z3          X4          Y4          Z4          X5          Y5          Z5          X6          Y6          Z6          X7          Y7          Z7          X8          Y8          Z8          X9          Y9          Z9          X10          Y10          Z10          X11          Y11          Z11          X12          Y12          Z12          X13          Y13          Z13          X14          Y14          Z14          X15          Y15          Z15          X16          Y16          Z16          X17          Y17          Z17          X18          Y18          Z18          X19          Y19          Z19          X20          Y20          Z20          X21          Y21          Z21          X22          Y22          Z22          X23          Y23          Z23          X24          Y24          Z24          X25          Y25          Z25          X26          Y26          Z26          X27          Y27          Z27          X28          Y28          Z28          X29          Y29          Z29          X30          Y30          Z30          X31          Y31          Z31          X32          Y32          Z32          X33          Y33          Z33          X34          Y34          Z34          X35          Y35          Z35          X36          Y36          Z36          X37          Y37          Z37          X38          Y38          Z38          X39          Y39          Z39          																																																																																																																							

	82	1.7	1471.555	881.845	-254.209	1467.613	880.221	-179.116	1475.498	883.469	-329.303	1443.211	470.272	-133.933	1433.628	460.185	-355.967	1406.226	69.248	-128.36	1382.738	71.356	-365.149	1564.992	960.852	-247.595	1558.751	958.281	-128.737	1571.232	963.422	-366.453	1378.674	1017.732	-223.812	1388.462	1015.849	-309.785	1452.138	476.081	-76.41	1441.653	463.005	-413.34	1427.813	478.09	-187.289	1429.467	466.329	-302.72	1391.523	71.12	-91.207	1365.002	74.495	-399.741	1415.912	83.546	-158.223	1391.196	83.621	-337.345	1342.824	42.604	-144.078	1317.547	42.962	-352.178	1485.472	1369.713	-236.902	1568.249	1206.333	-247.557	1371.65	1435.914	-242.052	1494.511	1358.42	-184.149	1509.018	1364.964	-292.138	1525.821	39.425	-99.257	1500.517	41.15	-401.753	1505.629	591.355	-11.381	1595.543	553.07	-341.473	1522.031	652.188	-84.03	1536.745	619.202	-382.953	1513.438	564.239	-99.585	1511.602	536.15	-386.204	1417.852	205.214	-6.33	1407.1	211.485	-479.853	1406.186	172.24	-79.279	1386.148	174.07	-410.965
	83	1.70833	1471.632	881.86	-254.213	1467.705	880.277	-179.118	1475.559	883.444	-329.309	1443.22	470.266	-134.002	1433.458	460.131	-355.961	1406.246	69.213	-128.369	1382.702	71.375	-365.124	1565.025	960.924	-247.663	1558.812	958.418	-128.839	1571.239	963.429	-366.487	1378.676	1017.724	-223.891	1388.49	1015.761	-309.718	1452.144	476.063	-76.478	1441.546	462.938	-413.326	1426.987	478.326	-187.07	1429.759	465.499	-303.387	1391.542	71.09	-91.217	1365.004	74.501	-399.736	1415.862	83.561	-158.221	1391.274	83.718	-337.305	1342.816	42.608	-144.052	1317.577	42.973	-352.208	1485.333	1369.66	-237.087	1567.938	1206.202	-247.885	1371.652	1435.94	-242.071	1494.273	1358.266	-184.515	1508.964	1364.978	-292.105	1525.84	39.47	-99.252	1500.553	41.114	-401.746	1505.683	591.368	-11.462	1595.539	553.105	-341.564	1522.082	652.155	-84.023	1536.637	618.99	-382.82	1513.133	564.095	-99.594	1511.819	536.001	-386.446	1417.898	205.272	-6.341	1407.115	211.466	-479.814	1405.998	172.176	-79.201	1386.152	173.994	-410.979
	84	1.71667	1471.714	881.887	-254.219	1467.804	880.345	-179.122	1475.623	883.429	-329.316	1443.221	470.27	-134.061	1433.35	460.111	-355.978	1406.227	69.209	-128.375	1382.689	71.392	-365.105	1565.062	961.01	-247.734	1558.877	958.57	-128.944	1571.246	963.449	-366.525	1378.651	1017.721	-224.002	1388.535	1015.692	-309.75	1452.149	476.056	-76.536	1441.483	462.912	-413.337	1426.625	478.325	-186.851	1430.079	464.887	-303.859	1391.526	71.092	-91.223	1365.017	74.508	-399.732	1415.785	83.596	-158.212	1391.315	83.748	-337.249	1342.807	42.607	-144.025	1317.591	42.957	-352.216	1485.265	1369.674	-237.171	1567.833	1206.213	-248.203	1371.685	1435.946	-242.084	1494.12	1358.161	-184.602	1508.978	1365.106	-292.172	1525.816	39.508	-99.304	1500.584	41.086	-401.738	1505.73	591.378	-11.535	1595.556	553.133	-341.646	1522.071	652.188	-84.115	1536.599	618.904	-382.757	1513.001	564.052	-99.605	1512.035	535.847	-386.628	1417.941	205.316	-6.354	1407.124	211.456	-479.796	1406.125	172.174	-79.203	1386.126	174.054	-410.95
	85	1.725	1471.795	881.913	-254.223	1467.901	880.411	-179.124	1475.689	883.416	-329.322	1443.225	470.287	-134.113	1433.332	460.125	-356.031	1406.195	69.223	-128.379	1382.691	71.405	-365.098	1565.096	961.097	-247.801	1558.937	958.722	-129.043	1571.254	963.472	-366.559	1378.622	1017.7	-224.126	1388.584	1015.637	-309.835	1452.154	476.063	-76.588	1441.482	462.929	-413.387	1426.524	478.314	-186.693	1430.046	465.397	-303.167	1391.496	71.111	-91.226	1365.029	74.514	-399.73	1415.758	83.569	-158.23	1391.231	83.692	-337.207	1342.791	42.605	-143.994	1317.597	42.935	-352.218	1485.305	1369.717	-237.207	1567.879	1206.259	-248.213	1371.757	1435.955	-242.071	1494.177	1358.222	-184.645	1509.002	1365.133	-292.206	1525.776	39.547	-99.353	1500.611	41.069	-401.729	1505.763	591.389	-11.612	1595.611	553.168	-341.715	1522.172	652.277	-84.242	1536.693	618.919	-382.737	1513.001	564.052	-99.605	1511.922	536.024	-386.355	1417.981	205.344	-6.368	1407.115	211.46	-479.801	1406.413	172.249	-79.36	1386.108	174.181	-410.937
	86	1.73333	1471.862	881.932	-254.224	1467.979	880.464	-179.124	1475.745	883.4	-329.324	1443.243	470.317	-134.168	1433.379	460.164	-356.1	1406.176	69.233	-128.381	1382.707	71.42	-365.102	1565.121	961.168	-247.853	1558.982	958.848	-129.121	1571.26	963.489	-366.585	1378.616	1017.647	-224.246	1388.62	1015.609	-309.897	1452.167	476.085	-76.641	1441.524	462.977	-413.456	1426.436	478.532	-186.702	1430.005	465.783	-302.91	1391.473	71.128	-91.229	1365.041	74.525	-399.732	1415.792	83.524	-158.237	1391.178	83.653	-337.244	1342.769	42.604	-143.972	1317.608	42.917	-352.226	1485.355	1369.745	-237.249	1567.885	1206.265	-248.276	1371.806	1436.019	-242.058	1494.233	1358.244	-184.688	1509.042	1365.157	-292.252	1525.728	39.586	-99.363	1500.636	41.071	-401.723	1505.777	591.399	-11.692	1595.687	553.22	-341.789	1522.345	652.398	-84.259	1536.828	618.977	-382.87	1513.017	564.11	-99.606	1511.913	536.123	-386.312	1418.027	205.358	-6.385	1407.088	211.471	-479.828	1406.36	172.282	-79.437	1386.115	174.249	-410.953
